<?xml version="1.0" encoding="utf-8"?>
<!-- Generated by IcoMoon.io -->
<!DOCTYPE svg PUBLIC "-//W3C//DTD SVG 1.1//EN" "http://www.w3.org/Graphics/SVG/1.1/DTD/svg11.dtd">

<svg version="1.1" xmlns="http://www.w3.org/2000/svg" xmlns:xlink="http://www.w3.org/1999/xlink" width="176" height="32" viewBox="0 0 176 32">
<defs>
<g id="icon-undo">
	<path class="path1" d="M23.808 32c3.554-6.439 4.153-16.26-9.808-15.932v7.932l-12-12 12-12v7.762c16.718-0.436 18.58 14.757 9.808 24.238z" />
</g>
<g id="icon-logo">
	<polygon points="154.2,0.2 154.4,0.2 154.4,0 	"/>
	<polygon points="1.3,153.2 1.3,153.1 1.2,153.2 	"/>
	<polygon points="1.4,80.9 1.3,153.1 154.2,0.2 82,0.3 	"/>
	<polygon points="0,254.8 72.2,254.8 153.1,173.9 153.1,101.6 	"/>
	<polygon points="79.9,160.8 145.1,95 73.4,95.1 8.2,160.5 8.4,160.9 79.9,160.9 	"/>
</g>
<g id="icon-logo2">
<path d="M66.02 0H0v80l24.515-42.18 12.258 21.245L53.5 66.49 42.98 54.075l-5.674-11.24 10.11-17.522 18.6 32.242V0z"/>
</g>

<g id="icon-redo">
	<path class="path1" d="M18 7.762v-7.762l12 12-12 12v-7.932c-13.961-0.328-13.362 9.493-9.808 15.932-8.772-9.482-6.909-24.674 9.808-24.238z" />
</g>
<g id="icon-forward">
	<path class="path1" d="M8.192 0c-3.554 6.439-4.153 16.259 9.808 15.932v-7.932l12 12-12 12v-7.762c-16.718 0.436-18.58-14.757-9.808-24.238z" />
</g>
<g id="icon-reply">
	<path class="path1" d="M14 24.238v7.762l-12-12 12-12v7.932c13.961 0.327 13.362-9.493 9.808-15.932 8.772 9.482 6.909 24.674-9.808 24.238z" />
</g>
</defs>
</svg>
