<?xml version="1.0" encoding="utf-8"?>
<!-- Generated by IcoMoon.io -->
<!DOCTYPE svg PUBLIC "-//W3C//DTD SVG 1.1//EN" "http://www.w3.org/Graphics/SVG/1.1/DTD/svg11.dtd">

<svg version="1.1" xmlns="http://www.w3.org/2000/svg" xmlns:xlink="http://www.w3.org/1999/xlink" width="176" height="32" viewBox="0 0 176 32">
<defs>
<g id="icon-undo">
	<path class="path1" d="M23.808 32c3.554-6.439 4.153-16.26-9.808-15.932v7.932l-12-12 12-12v7.762c16.718-0.436 18.58 14.757 9.808 24.238z" />
</g>
<g id="icon-logo">
	<path d="M14.375 10.468c2.65-.036 5.3 2.322 6.87 5.83l6.98-4.02s-7.72-7.22-14.112-7.22C8.218 5.057 2.71 8.042 2.71 14.08c0 5.645 2.976 7.862 10.632 9.023 4.132.61 5.84 1.44 5.84 3.433 0 1.994-1.43 3.154-4.517 3.154-3.47 0-8.114-.79-8.114-4.95L0 28.5s2.11 6.78 14.72 6.78c7.602 0 12.12-3.263 12.12-9.518 0-6.2-3.965-8.03-11.182-9.083-4.19-.606-5.57-1.325-5.57-3.155 0 0-.004-.632.292-1.25.546-1.137 2.643-1.79 3.995-1.807zM29.678 34.67h7.933L37.56 6.906l-7.933 4.568.053 23.198zm31.21-24.633c-1.594-2.93-4.457-4.98-9.087-4.98-7.217 0-12.67 5.59-12.67 15.11v.446c0 9.633 5.508 14.668 12.508 14.668 4.24 0 7.765-2.49 9.25-5.426v5.426h7.94V4.578L60.887 0v10.037zm.223 10.298c0 5.868-2.916 8.69-7.103 8.69-3.97 0-6.723-2.822-6.723-8.58v-.442c0-5.76 2.478-8.8 6.94-8.8 4.355 0 6.887 2.932 6.887 8.69v.442zm9.164 14.945h7.934V9.953L70.274 5.4v29.88zm23.44-30.223c-7.056 0-12.687 3.318-12.687 6.52l5.328 3.062c0-2.49 2.143-3.77 6.86-3.77 3.637 0 4.684 1.88 4.684 5.313v8.36c0 3.208-2.7 5.147-6.226 5.147-2.922 0-4.186-1.383-4.186-3.487 0-3.1 4.472-5.415 9.103-5.415h.436l-6.624-3.798c-3.353 0-10.74 3.44-10.74 9.655 0 6.09 4.41 8.636 9.642 8.636 4.517 0 7.05-1.77 8.704-4.096v4.096h7.77V15.796c0-7.862-5.015-10.74-12.065-10.74zm30.903 0c-4.793 0-7.933 2.38-9.37 5.258V5.722h-7.987V26.72l7.988 4.584v-13.35c0-4.26 2.59-6.364 6.007-6.364 3.525 0 5.07 1.88 5.07 5.81v17.88h7.988V16.238c0-7.748-4.023-11.18-9.696-11.18z" id="a"/>
</g>
<g id="icon-redo">
	<path class="path1" d="M18 7.762v-7.762l12 12-12 12v-7.932c-13.961-0.328-13.362 9.493-9.808 15.932-8.772-9.482-6.909-24.674 9.808-24.238z" />
</g>
<g id="icon-forward">
	<path class="path1" d="M8.192 0c-3.554 6.439-4.153 16.259 9.808 15.932v-7.932l12 12-12 12v-7.762c-16.718 0.436-18.58-14.757-9.808-24.238z" />
</g>
<g id="icon-reply">
	<path class="path1" d="M14 24.238v7.762l-12-12 12-12v7.932c13.961 0.327 13.362-9.493 9.808-15.932 8.772 9.482 6.909 24.674-9.808 24.238z" />
</g>
</defs>
</svg>
